<?xml version="1.0" encoding="UTF-8"?><svg id="a" xmlns="http://www.w3.org/2000/svg" viewBox="0 0 113.78 76.39"><defs><style>.b{fill:#231f20;}</style></defs><path class="b" d="M89.71,41.61c0,.3,.06,.6,.12,.96,8.55,4.11,17.75,12.64,23.95,13.02-.29,3.73-2.21,5.64-4.56,5.7-7.1,.18-11.42-11-19.05-16.62,.62,3.65,1.61,6.92,2.88,9.47-1.74,1.54-3.5,2.31-5.08,2.35-3.12,.08-5.54-2.74-5.68-8.32-.04-1.5-.08-3-.02-4.44-.48,.01-.96,.08-1.39,.1-1.73,.04-2.51-.6-2.53-1.38-.02-.96,1.2-2.07,3.36-2.12,.24,0,.38,0,.67-.02,1.2-23.14,10.08-38.36,18.62-38.58,5.62-.14,8.6,5.79,8.76,12.38,.33,13.26-10.41,23.25-20.05,27.51Zm-7.4-.11s-.15-.06-.62-.04c-.96,.02-2.24,.66-2.23,1.14,0,.24,.4,.47,1.5,.44,.43-.01,.86-.08,1.29-.09,.04-.48,.07-1.02,.06-1.44Zm7.22-1.2c6.91-4.13,12.7-12.62,12.44-22.64-.09-3.6-.95-10.96-5.07-10.86-5.38,.14-8.11,13.47-7.78,26.72,.06,2.28,.16,4.56,.41,6.77Z"/><g><path d="M68.54,53.94c-.41,1.06-.84,2.12-1.29,3.11-1.53,3.56-4.22,8.88-6.62,8.94-1.38,.03-2.68-1.73-3.65-6.58-3.09-15.53-.19-45.91-9.61-45.67-7.62,.19-10.51,18.72-12.93,39.56-.45-13.19-.65-28.34-2.62-37.22-1.02-4.62-2.53-7.51-4.81-7.46-9.06,.23-12.44,32.8-15.12,57.32-.72-7.33-1.17-15.5-1.37-23.6-.3-11.85-.05-23.56,.81-32.2C2.41,10.97-.25,19.59,.02,30.31c.49,19.49,10.7,46.02,11.42,46.08,.77-.39,1.54-1.01,1.52-1.54-.18-7.2,6.76-58.01,11.26-58.12,.54-.01,.78,2.38,.88,6.2,.19,7.72-.22,15.16-.03,22.66,.32,12.75,.84,28.79,9.3,28.57,.54-.01,1.02-.03,1.62-.19-.48-2.54-.81-5.91-1.09-9.8,1.83-15.5,6.14-42.24,9.68-42.33,.54-.01,.78,2.38,.88,6.2,.06,2.55-.08,8.55,.09,15.38,.35,13.94,2.05,31.46,9.61,31.27,4.98-.13,10.53-10.84,13.31-17.44,.65-1.52,1.3-2.97,1.79-4.42v-.14c-.57,.5-1.14,.91-1.71,1.25Z"/><path d="M69.6,28.21c8.02-5.14,19.61-13.75,19.42-21.56-.06-2.31-1.17-4.6-3.77-6.66-3.38,8.9-9.11,19.67-19.21,27.87,.08-6.57,.52-13.14,.38-18.58-.15-5.81-2.67-8.75-5.92-8.67-1.65,.04-3.48,.84-5.29,2.45,3.34,1.48,4.39,7.33,4.57,14.64,.23,9.12-.88,20.53-.68,28.71,.15,5.81,2.67,8.75,5.92,8.67,1.11-.03,2.3-.41,3.51-1.15,.22-.56,.44-1.12,.63-1.66l1.06,.32v-.11c-3.04-4.18-3.99-10.95-4.18-18.37-.03-1.19-.06-2.44-.04-3.69l2.12-1.3c5.18,19.06,12.19,31.14,20.24,30.94,2.45-.06,4.39-2.05,4.69-5.93-6.76-.39-17.78-11.49-23.45-25.92Z"/><path d="M70.23,52.6l-1.06-.32c-.19,.55-.41,1.11-.63,1.66,.56-.34,1.13-.75,1.7-1.25v-.1Z"/><path d="M70.24,52.69v.14s.04-.08,.05-.13c0-.02,0-.04,0-.06-.02,.02-.03,.03-.05,.04Z"/><path d="M70.29,52.61s-.02-.06-.03-.09c0-.01-.02-.03-.03-.04v.11l.06,.02Z"/><path d="M70.29,52.65s0-.03,0-.04l-.06-.02v.1s.04-.03,.06-.04Z"/></g></svg>