<svg id="Layer_1" data-name="Layer 1" xmlns="http://www.w3.org/2000/svg" viewBox="0 0 147.72 147.58"><defs><style>.cls-1{fill:#231f20;}</style></defs><path class="cls-1" d="M56.14,24.9c.23,9.27,1.14,19.6,1.39,29.31.47,18.72-1.44,34.7-14.82,35-6.12.15-10.52-3-13.53-7.86C26.6,87.58,23.11,91.9,18.86,92,9.07,92.25,1.52,63.9,1,41.5.59,27.11,3.1,15.16,9.87,15c2.87-.07,5.79,1.21,6.61,2.36-2.81,5.65-4.77,25-4.35,42,.38,15.2,2.74,28.47,8.06,28.33,3.31-.08,5.89-3.39,7.86-8.21-2.88-5.87-4.23-13.58-4.42-21.22-.36-14.4,3.32-28.35,8-28.47,2.16-.06,3.38,5.4,3.57,13.14a119.83,119.83,0,0,1-3.15,29.43c2.37,8.13,6.41,14.42,12.68,14.26,6-.15,7.76-6.49,7.54-15.13-.41-16.37-8-41-8.14-48.68C43.88,12.7,49.75,5.53,58.46,2.61,56.29,7.88,55.92,15.9,56.14,24.9Zm-25,43.75A113.63,113.63,0,0,0,33,45.74c-.13-5.13-.72-8.63-1.8-8.6-1.44,0-2.36,6.36-2.16,14.55A87.48,87.48,0,0,0,31.09,68.65Z"/><path class="cls-1" d="M76.84,89.2c0,.63-.9,1.37-1.83,1.84-.86-.06-13.12-31.89-13.7-55.29C61,22.89,64.18,12.54,74.89,11.56a331.37,331.37,0,0,0-1,38.64c.24,9.72.77,19.52,1.64,28.32C78.79,49.09,82.84,10,93.71,9.73c2.74-.07,4.55,3.4,5.77,9,2.36,10.65,2.6,28.83,3.14,44.66,2.91-25,6.38-47.24,15.52-47.47,11.3-.28,7.83,36.17,11.54,54.8,1.15,5.83,2.72,8,4.37,7.91,2.88-.08,6.11-6.46,7.94-10.74.82-1.82,1.64-3.82,2.31-5.73l1.38.42c-.6,1.82-1.42,3.64-2.24,5.55-3.33,7.91-10,20.77-16,20.92-9.07.23-11.11-20.78-11.53-37.52-.21-8.18,0-15.39-.1-18.45-.12-4.59-.41-7.46-1.06-7.44-4.24.1-9.41,32.19-11.61,50.79a107.81,107.81,0,0,0,1.3,11.76,7,7,0,0,1-1.94.23c-10.15.26-10.77-19-11.16-34.29-.22-9,.27-17.92,0-27.19-.12-4.58-.41-7.46-1-7.44C85,19.58,76.62,80.56,76.84,89.2Z"/></svg>